<?xml version="1.0" encoding="utf-8"?>
<!-- Generator: Adobe Illustrator 27.7.0, SVG Export Plug-In . SVG Version: 6.00 Build 0)  -->
<svg version="1.1" id="Layer_1" xmlns="http://www.w3.org/2000/svg" xmlns:xlink="http://www.w3.org/1999/xlink" x="0px" y="0px"
	 viewBox="0 0 1054.4 279.7" style="enable-background:new 0 0 1054.4 279.7;" xml:space="preserve">
<style type="text/css">
	.st0{fill:#FFFFFF;}
	.st1{fill:#004455;}
	.st2{fill:#58595B;}
	.st3{fill:#A6A8AB;}
</style>
<g>
	<g>
		<rect x="857.6" class="st0" width="196.9" height="39.1"/>
		<polygon class="st0" points="857.6,71.9 857.6,159.4 896.7,159.4 896.7,111 1015.4,111 1015.4,159.4 1054.4,159.4 1054.4,71.9 		
			"/>
		<polygon class="st0" points="1015.4,240.6 973.4,240.6 973.4,210.2 938.6,210.2 938.6,240.6 896.7,240.6 896.7,192.2 857.6,192.2 
			857.6,279.7 1054.4,279.7 1054.4,192.2 1015.4,192.2 		"/>
	</g>
	<g>
		<path class="st0" d="M770.7,104.8l-3.1-6.1L748.5,109l-1,35.5l-29.3,0.9c-0.5-5.1-1.2-11.4-2.2-18.9l-1.1-0.3l-6.4,10.6l5.5,34.1
			c-36.8,7.4-104,19-148.4,22.5l-0.5,3.8l22.6,7.3c40.3-4.4,91.2-14.2,107-18.2c19.4-4.8,24.8-8.3,24.8-21.7c0-1.3-0.1-3.5-0.3-6.5
			l15.3-0.2c14.6-0.1,16.2-9.2,16.7-13.8l0.1-1.6l18.8,3.2c3.9,0.6,6-4.2,7.8-10c1.3-4.2,1.4-6.8,1.4-9.4
			C779.5,121.7,777.1,117.2,770.7,104.8z M752.4,129.7l0.2-9.5l12.7-4.9l9.9,17.6L752.4,129.7z"/>
		<path class="st0" d="M278.3,9.3l-1.5-0.5L267.9,20l10.9,145c-10.3,1.6-14.9,2.3-23,2.3c-10.9,0-16.4-7.5-19-18.9l-1.1-0.4
			l-34.1,35.2l-2.7,9.7l1,1.1l32.8-32.1c2,11.5,9.5,19.7,22.3,19.7c19.4,0,32.1-8.3,30.7-32.4L278.3,9.3z"/>
		<polygon class="st0" points="158.5,152.3 164.6,140.6 158.7,9.3 157.2,8.9 148.4,20 156.9,152.2 		"/>
		<polygon class="st0" points="250.8,143.5 257,131.8 250.5,9.3 249.2,8.9 240.2,20 249.2,143.5 		"/>
		<polygon class="st0" points="80.1,100.6 64.6,93 58,105.9 73.3,113.6 		"/>
		<polygon class="st0" points="144.4,204.1 159,211.7 165.4,199.3 150.5,191.9 		"/>
		<polygon class="st0" points="166.1,204.1 180.7,211.7 187.1,199.3 172.2,191.9 		"/>
		<path class="st0" d="M41.7,159.1c17.6-0.5,45.7-4.6,77.3-10.9c20.2-4,21.1-10.6,18.2-39l-2.8-28.2l-1.1-0.5l-7.2,10.8l6.1,41.6
			c-29.1,6.4-67.2,10.9-87.4,11.4C14,145.1,5.5,138,5.5,123.7c0-6.9,2.9-15.2,6.1-25.2l-4-0.5C3.4,110.7,0,122.3,0,131.6
			C0,148.3,9.3,160.2,41.7,159.1z"/>
		<path class="st0" d="M212.9,148c14.1-0.2,17.5-7.7,17.5-16.2c0-7.4-1.5-14.1-7.9-30.2l-1.4-0.3l-5.1,13.7l10.1,18.1l-36.8,1.6
			c-0.5-5.5-1.3-12.2-2.2-20.1l-1.3-0.6l-6.3,11.1l5.4,33c-36.7,7.1-104,18.2-148.3,21.8l-0.5,3.6l22.7,7.1
			c40.3-4.3,91.1-13.7,107-17.5c19.5-4.7,24.8-8.1,24.8-21.1c0-0.6,0-1.8-0.2-3.6L212.9,148z"/>
		<path class="st0" d="M434.1,152.7c0.2,11.6,4,17.6,14.7,17.6c1.3,0,2.6-0.1,4.1-0.3c19.6-2,22-4.8,22.9-16.6l18.8,3
			c3.8,0.6,6-3.9,7.8-9.6c1.3-4,1.4-6.7,1.4-9.3c0-4.5-2.1-8.8-8.8-21.2l-3.3-5.9l-18.9,10l-0.9,35.4l-13.5,1.7
			c-3.4,0.4-6.3,0.7-8.6,0.7c-10,0-12-4.6-12.8-17.8l-1-0.6c-33.1,11.7-73.8,23-95.6,23c-27.6,0-30.1-11.6-30.8-42.5L307,10.4
			l-1.4-0.4l-9,11.3l5,104c1.4,31.1,3.6,52.1,37.4,52.1C360.3,177.3,402.6,164.7,434.1,152.7z M477,131.3l12.7-4.8l9.9,17.7
			l-22.8-3.3L477,131.3z"/>
		<path class="st0" d="M338.9,147.8c6.8,0,20.2-3,30-5.8c9.3-2.7,11.2-6.6,11.6-16l0.3-6c0.5-8.7-2-12.2-10.5-22.5l-23.5-29
			l-1.5,0.7L345,83l31.3,36.1l-0.2,9c-15.6,3.3-31.1,5.9-38.5,5.9c-6.5,0-9.1-3.2-9.1-8.7c0-3,0.8-6.2,1.8-10.2h-3.5
			c-1.7,5.5-2.8,10.9-2.8,15.6C323.9,140.9,328.3,147.8,338.9,147.8z"/>
		<polygon class="st0" points="332.1,208.8 349,217.4 356.7,203 339.4,194.6 		"/>
		<polygon class="st0" points="533.7,105.1 518.1,97.4 511.5,110.1 526.8,118 		"/>
		<path class="st0" d="M695.9,134.5l-3-7.2c-3.2-7.8-10.3-13.1-20.3-13.1c-1.9,0-3.8,0.2-5.7,0.5c-28,4.4-65.5,10.3-93,10.3
			c-11.1,0-16.9-0.5-24.6-3.3c18.5-15,52.9-32.3,52.9-20.6c0,2.6-1.4,5.9-3.2,9.6h3.7c3.3-6.4,6.3-13.4,6.3-18.6
			c0-20.1-40.9,0.4-62.2,19.1l-2.1,21.9c8.1,3.3,15.1,4.6,27.7,4.6c26.4,0,63.8-5.8,95.6-10.3c2.1-0.3,3.8-0.5,5.2-0.5
			c6.3,0,9.6,2.3,12,7.1l4.8,9.9c-36.6,7.7-106.9,14.7-125.4,14.7c-17.2,0-31.8-2.5-34.6-17.9c-0.2-2.2-0.5-4.5-0.8-7l-1.1-0.3
			l-6.4,10.9l5.3,33c-36.8,7-104,18.2-148.4,21.7l-0.4,3.6l22.6,7c40.3-4.3,91.2-13.7,107.1-17.5c19.4-4.7,24.8-8,24.8-21
			c0-1.5-0.1-3.9-0.4-7.7c6.2,7.2,17.4,9.7,29,9.7c21.5,0,90.6-8.1,130.1-17.4L695.9,134.5z"/>
	</g>
</g>
</svg>
