<svg width="142" height="56" viewBox="0 0 141 56" fill="none" xmlns="http://www.w3.org/2000/svg">
  <g clip-path="url(#clip0_6733_84759)">
    <path d="M89.1939 19.5442C88.556 18.1184 87.6364 16.8363 86.4904 15.7751C85.3534 14.6846 84.0121 13.8295 82.5436 13.259C80.6951 12.5614 78.7083 12.3086 76.7439 12.5212C74.7796 12.7337 72.8928 13.4056 71.2363 14.4825C69.2931 15.7607 67.7694 17.583 66.8554 19.7218C65.9755 21.8375 65.7621 24.1713 66.2437 26.4115C66.7312 28.6744 67.8901 30.7377 69.5688 32.3315C71.2743 33.951 73.4131 35.0409 75.7257 35.4692C78.046 35.8998 80.4408 35.6637 82.6324 34.7884C84.8014 33.9206 86.6677 32.435 88 30.5161C89.1111 28.9377 89.8035 27.1031 90.0123 25.1841C90.2211 23.2652 89.9395 21.3246 89.1939 19.5442ZM82.3956 28.3552C81.2251 29.5166 79.6534 30.1841 78.0049 30.2201C76.8159 30.2146 75.6528 29.8725 74.6502 29.2334C73.6662 28.6041 72.8904 27.6978 72.4203 26.6285C71.9577 25.5708 71.8269 24.3976 72.0454 23.264C72.2741 22.1411 72.8303 21.1111 73.6438 20.3039C74.4775 19.4651 75.5365 18.8859 76.6926 18.6364C77.8549 18.3798 79.0662 18.4585 80.1855 18.8634C81.2962 19.261 82.2667 19.9743 82.9778 20.9157C83.6764 21.8374 84.082 22.9477 84.1421 24.1026C84.1292 25.7018 83.4836 27.2309 82.3463 28.3552H82.3956Z" fill="#0FB694"/>
    <path d="M116.955 12.4006V35.5679H111.548V24.1915L104.976 29.8945L98.4642 24.1915V35.5679H93.0078V12.3414L104.976 22.9285L116.955 12.4006Z" fill="#0FB694"/>
    <path d="M139.966 17.8175C139.533 16.6981 138.86 15.6876 137.993 14.8574C137.118 13.985 136.064 13.3119 134.905 12.8841C133.743 12.4656 132.506 12.2943 131.274 12.3809H120.766V35.5678H126.528V30.2398H131.215C132.436 30.2974 133.656 30.1078 134.802 29.6822C135.948 29.2566 136.997 28.6039 137.885 27.7632C138.746 26.9286 139.419 25.9193 139.858 24.8032C140.302 23.698 140.5 22.5096 140.44 21.3202C140.54 20.132 140.378 18.9365 139.966 17.8175ZM131.264 24.9117H126.577V17.7484H131.264C131.772 17.6932 132.286 17.7436 132.774 17.8964C133.261 18.0508 133.709 18.3101 134.086 18.6562C134.455 18.9929 134.745 19.4074 134.934 19.8698C135.122 20.329 135.2 20.8256 135.161 21.3202C135.161 24.0632 133.316 24.9117 131.264 24.9117Z" fill="#0FB694"/>
    <path d="M65.9844 43.2936H73.4042V44.2803H67.1388V48.8683H72.5261V49.855H67.1388V55.0548H65.9844V43.2936Z" fill="#0FB694"/>
    <path d="M84.3507 43.9743C84.331 43.88 84.331 43.7825 84.3507 43.6882C84.3843 43.5981 84.4383 43.517 84.5086 43.4514C84.578 43.381 84.6623 43.327 84.7552 43.2935C84.8525 43.2697 84.954 43.2697 85.0513 43.2935C85.2498 43.293 85.4421 43.3629 85.5939 43.4908C85.6641 43.5565 85.7182 43.6376 85.7518 43.7277C85.7715 43.822 85.7715 43.9194 85.7518 44.0138C85.7658 44.102 85.7658 44.1919 85.7518 44.2802C85.7143 44.3683 85.6608 44.4486 85.5939 44.517C85.4421 44.6449 85.2498 44.7149 85.0513 44.7143C84.8519 44.7195 84.658 44.649 84.5086 44.517C84.4417 44.4486 84.3881 44.3683 84.3507 44.2802C84.3322 44.1791 84.3322 44.0754 84.3507 43.9743ZM84.5086 46.6581H85.663V55.0251H84.3507L84.5086 46.6581Z" fill="#0FB694"/>
    <path d="M101.336 46.5298C101.67 46.5283 102.003 46.5782 102.322 46.6778C102.663 46.7943 102.971 46.9905 103.22 47.2501C103.511 47.5259 103.737 47.8629 103.881 48.2368C104.057 48.7578 104.14 49.3053 104.128 49.8549V54.9857H103.003V50.0523C103.031 49.7239 103.031 49.3939 103.003 49.0656C102.953 48.7776 102.845 48.5025 102.687 48.2565C102.525 48.0337 102.316 47.8485 102.076 47.7138C101.768 47.5688 101.429 47.501 101.089 47.5165C100.553 47.5125 100.029 47.6745 99.5893 47.9802C99.1476 48.2606 98.7763 48.6387 98.5039 49.0853V55.0547H97.3594V47.704C97.3783 47.3753 97.3783 47.0459 97.3594 46.7173H98.4447V48.0493C98.7972 47.6571 99.2103 47.324 99.6682 47.0626C100.168 46.7427 100.743 46.559 101.336 46.5298Z" fill="#0FB694"/>
    <path d="M119.373 55.0153C118.735 55.0229 118.101 54.9194 117.498 54.7094C116.99 54.5152 116.527 54.2198 116.137 53.8412C115.769 53.4592 115.489 53.0011 115.318 52.4993C115.12 51.9489 115.023 51.3673 115.032 50.7825C115.033 50.15 115.129 49.5213 115.318 48.9176C115.509 48.3992 115.804 47.9257 116.186 47.5264C116.557 47.126 117.012 46.8127 117.518 46.6088C118.083 46.3998 118.682 46.2962 119.284 46.3029C119.893 46.2941 120.496 46.4187 121.051 46.668C121.511 46.8923 121.905 47.2323 122.195 47.6547C122.498 48.077 122.7 48.563 122.787 49.0755C122.876 49.6311 122.876 50.1973 122.787 50.7529H116.314C116.279 51.208 116.339 51.6656 116.492 52.0957C116.645 52.5259 116.887 52.9189 117.202 53.2492C117.87 53.8153 118.725 54.111 119.6 54.078C120.505 54.079 121.383 53.7689 122.087 53.1998L122.609 53.9497C121.705 54.7036 120.548 55.0846 119.373 55.0153ZM121.633 49.8352V49.5294C121.631 49.2411 121.584 48.9548 121.495 48.6808C121.415 48.4079 121.277 48.1555 121.09 47.9408C120.893 47.7139 120.646 47.5351 120.37 47.4179C119.996 47.2733 119.596 47.2061 119.196 47.2205C118.806 47.2074 118.418 47.2816 118.061 47.4376C117.743 47.5747 117.458 47.7763 117.222 48.0296C116.995 48.2724 116.811 48.5528 116.68 48.8584C116.553 49.1746 116.47 49.5065 116.433 49.8451L121.633 49.8352Z" fill="#0FB694"/>
    <path d="M136.554 51.3942L134.087 55.0252H132.656L135.873 50.6542L132.913 46.5002H134.363L134.59 46.8554C134.59 47.0331 134.837 47.2501 135.014 47.4869L135.557 48.2763L136.08 49.036L136.485 49.628C136.487 49.6806 136.506 49.7312 136.537 49.7734C136.569 49.8155 136.612 49.8473 136.662 49.8648L138.932 46.5002H140.352L137.323 50.6542L140.5 55.0252H139.01L136.554 51.3942Z" fill="#0FB694"/>
    <path d="M54.5521 27.9704V28.0296C54.5521 28.4638 54.5521 28.8979 54.5521 29.332C54.5521 29.7662 54.5521 29.9833 54.483 30.3187C54.414 31.0686 54.3153 31.8283 54.1969 32.5782C54.1643 32.8305 54.1182 33.0808 54.0588 33.3281C53.9996 33.5748 53.9502 33.8214 53.891 34.0681C53.7858 34.5614 53.6575 35.0548 53.5062 35.5481L53.2891 36.2684C53.2203 36.5161 53.1379 36.7598 53.0425 36.9985C52.7013 37.9575 52.306 38.8964 51.8585 39.8106C51.1881 41.1878 50.406 42.5078 49.52 43.7573C48.3344 45.4078 46.9675 46.9203 45.445 48.2664C45.0602 48.6019 44.6754 48.9275 44.2709 49.2531C41.8694 51.1465 39.1635 52.6178 36.2689 53.6044C35.7854 53.7721 35.2822 53.9201 34.8086 54.0582C34.335 54.1964 33.822 54.3148 33.3286 54.4233L32.6083 54.5713C32.3814 54.6305 32.1347 54.67 31.8881 54.7094L31.2566 54.7884C30.9902 54.8377 30.7238 54.8673 30.4376 54.8969L29.9542 54.9463L28.9675 55.0153C28.5235 55.0153 28.0696 55.0153 27.6157 55.0153H27.5368C27.0829 55.0153 26.6291 55.0153 26.185 55.0153C25.741 55.0153 25.4944 55.0153 25.1984 54.9463L24.6853 54.8969L23.6295 54.7588H23.4717C23.0244 54.693 22.5902 54.6141 22.1693 54.522L21.2812 54.3246L30.4574 31.7297H37.1076L43.6394 6.34241C45.9624 8.06311 47.9944 10.1451 49.6582 12.5092C50.112 13.1505 50.5363 13.8214 50.931 14.4825C51.0691 14.7193 51.1875 14.9463 51.3158 15.1732C51.4441 15.4001 51.5625 15.6468 51.6809 15.8737C51.7993 16.1007 51.9177 16.3473 52.0163 16.5841C52.5535 17.7085 53.0022 18.873 53.3582 20.0671C53.4569 20.373 53.5555 20.6789 53.6345 20.9946L53.7529 21.4386C53.8318 21.7642 53.9108 22.0997 53.9798 22.4253C54.0489 22.7509 54.1081 23.0666 54.1574 23.412C54.2068 23.7573 54.2265 23.8461 54.2561 24.073C54.2857 24.3 54.3449 24.6552 54.3745 24.9709C54.4041 25.2867 54.3745 25.3557 54.4337 25.5333C54.4385 25.5627 54.4385 25.5927 54.4337 25.6221C54.4337 25.9576 54.4929 26.2832 54.5028 26.6088C54.5126 26.9344 54.5521 27.5166 54.5521 27.9704Z" fill="#0FB694"/>
    <path d="M43.6382 6.34234L21.0531 30.0819H11.2455L4.12167 41.4287C2.49597 38.6274 1.38958 35.5556 0.855758 32.3611C0.855758 32.0749 0.766957 31.7691 0.72749 31.4829C0.688022 31.1968 0.658422 30.9008 0.628822 30.5752C0.599221 30.2496 0.559754 29.7859 0.54002 29.3714C0.520287 28.957 0.54002 28.4736 0.54002 28.0197V27.9704C0.54002 27.5165 0.54002 27.0626 0.54002 26.6087C0.54002 26.1549 0.589354 25.8095 0.628822 25.4149C0.628822 25.2866 0.628822 25.1583 0.628822 25.0498C0.64924 24.7357 0.685464 24.4229 0.737356 24.1124C0.737356 23.994 0.737356 23.8756 0.737356 23.7572C0.806424 23.3527 0.875492 22.9482 0.964293 22.5535C1.05309 22.1588 1.22083 21.6951 1.3787 21.3103V21.0932C1.47737 20.7183 1.5859 20.3335 1.7043 19.9684C1.8227 19.6033 1.95097 19.2284 2.07924 18.8633C2.20751 18.4982 2.44431 17.8766 2.66138 17.3636C2.76992 17.107 2.88832 16.8505 3.00672 16.6038C3.40534 15.7515 3.85 14.9214 4.33874 14.1174C4.46701 13.9102 4.59527 13.703 4.73341 13.4958C5.04915 13.0024 5.37475 12.5091 5.72009 12.0552L6.07529 11.5915C6.20356 11.404 6.35156 11.2363 6.47983 11.0587C6.6081 10.8811 6.7857 10.6936 6.94357 10.5061L7.15078 10.2693L7.68358 9.66745C8.85983 8.4023 10.1514 7.24948 11.5415 6.22394L12.3802 5.62206L12.5972 5.49379C12.8439 5.31619 13.0906 5.15832 13.357 5.00045C13.6234 4.84259 13.8997 4.67485 14.1759 4.51698C14.4522 4.35911 14.7877 4.17164 15.0935 4.01378C17.1189 2.95825 19.2709 2.16578 21.4971 1.65561L22.6219 1.42867C23.3718 1.28067 24.1315 1.182 24.9011 1.10307C25.2892 1.0636 25.6708 1.02085 26.0457 0.974801H26.1246C26.539 0.974801 26.9534 0.974801 27.3777 0.974801H27.7526C28.0419 0.959897 28.3317 0.959897 28.6209 0.974801C34.0361 1.29549 39.2466 3.15787 43.6382 6.34234Z" fill="#0FB694"/>
    <path d="M60.8129 10.1116C60.6747 9.98329 60.7043 9.94382 60.8129 9.82542C60.9277 9.72764 61.0017 9.59031 61.0201 9.44061C61.0095 9.31135 60.9494 9.19117 60.8523 9.10514C60.7565 9.01197 60.6305 8.956 60.4971 8.94727C60.1717 8.87972 59.8359 8.87972 59.5105 8.94727C59.479 8.94587 59.4476 8.95104 59.4182 8.96244C59.3888 8.97385 59.3622 8.99124 59.3399 9.01351C59.3176 9.03579 59.3002 9.06246 59.2888 9.09182C59.2774 9.12119 59.2723 9.1526 59.2737 9.18407V10.8417C59.2737 11.039 59.3822 11.039 59.5105 11.039C59.6387 11.039 59.767 11.039 59.767 10.8516C59.7472 10.7472 59.7472 10.6401 59.767 10.5358C59.767 10.4273 59.767 10.2201 59.9249 10.2201C60.0086 10.1954 60.0977 10.1954 60.1814 10.2201C60.2628 10.2504 60.3297 10.3103 60.3689 10.3878C60.4153 10.4859 60.4516 10.5883 60.4774 10.6937C60.5958 11.039 60.5958 11.039 61.0596 10.9502C61.0649 10.652 60.9788 10.3594 60.8129 10.1116ZM60.4675 9.54915C60.4675 9.73661 60.2307 9.85502 59.9742 9.85502C59.7177 9.85502 59.767 9.63795 59.7571 9.48008C59.7473 9.32221 59.9051 9.21368 60.0926 9.21368C60.1776 9.19939 60.2649 9.21941 60.3352 9.26935C60.4055 9.31929 60.4531 9.39508 60.4675 9.48008V9.54915Z" fill="#0FB694"/>
    <path d="M60.084 7.51653C59.601 7.50182 59.1243 7.62872 58.7125 7.8816C58.3099 8.13768 57.9936 8.50898 57.8048 8.94722C57.617 9.37883 57.5687 9.85831 57.6666 10.3187C57.7594 10.7857 57.9936 11.2129 58.3376 11.5422C58.688 11.8771 59.1276 12.1038 59.6037 12.1948C60.0799 12.2858 60.5721 12.2373 61.0213 12.0553C61.4716 11.8791 61.8596 11.5735 62.1363 11.1771C62.4406 10.7262 62.5768 10.1827 62.5208 9.64155C62.4649 9.10043 62.2205 8.59621 61.8304 8.21707C61.3619 7.76469 60.7352 7.5133 60.084 7.51653ZM60.084 11.6606C59.7335 11.6587 59.391 11.5559 59.0973 11.3646C58.8006 11.1735 58.5671 10.8989 58.4264 10.5752C58.2846 10.2532 58.2464 9.89503 58.3171 9.55033C58.3878 9.20562 58.5639 8.89142 58.8211 8.65121C59.0939 8.39462 59.4377 8.22615 59.8077 8.16774C60.1621 8.10369 60.5272 8.13781 60.8635 8.26641C61.1919 8.40275 61.4756 8.62834 61.6824 8.91761C61.8821 9.20787 61.9888 9.55199 61.9883 9.90429C61.9876 10.1376 61.9391 10.3683 61.8458 10.5821C61.7524 10.796 61.6162 10.9884 61.4456 11.1475C61.2663 11.3223 61.0528 11.4581 60.8185 11.5464C60.5841 11.6347 60.3341 11.6736 60.084 11.6606Z" fill="#0FB694"/>
  </g>
  <defs>
    <clipPath id="clip0_6733_84759">
      <rect width="140" height="54.0503" fill="white" transform="translate(0.5 0.974854)"/>
    </clipPath>
  </defs>
</svg>
